<?xml version="1.0" standalone="no"?>
<!DOCTYPE svg PUBLIC "-//W3C//DTD SVG 20010904//EN"
 "http://www.w3.org/TR/2001/REC-SVG-20010904/DTD/svg10.dtd">
<svg version="1.0" xmlns="http://www.w3.org/2000/svg"
 width="880.000000pt" height="880.000000pt" viewBox="0 0 880.000000 880.000000"
 preserveAspectRatio="xMidYMid meet">
<metadata>
Created by potrace 1.14, written by Peter Selinger 2001-2017
</metadata>
<g transform="translate(0.000000,880.000000) scale(0.100000,-0.100000)"
fill="#000000" stroke="none">
<path d="M6316 8779 c-35 -17 -173 -111 -212 -146 -12 -10 -46 -38 -75 -63
-96 -80 -245 -235 -259 -269 -10 -26 -17 -31 -34 -27 -104 30 -250 65 -254 61
-3 -3 -10 -1 -16 4 -6 5 -38 12 -71 16 -33 4 -71 9 -85 11 -98 15 -334 20
-440 10 -118 -12 -281 -39 -300 -51 -4 -3 -25 -7 -46 -11 -22 -3 -47 -10 -56
-15 -10 -5 -18 -6 -18 -2 0 4 -5 2 -12 -5 -7 -7 -19 -12 -27 -12 -28 0 -196
-89 -236 -126 -22 -20 -47 -41 -56 -47 -22 -17 -138 -162 -178 -224 -18 -29
-36 -53 -40 -53 -3 0 -6 136 -6 302 l0 303 -100 -1 c-100 -1 -255 -11 -297
-20 -13 -2 -41 -6 -63 -9 -22 -3 -51 -7 -65 -10 -13 -3 -40 -7 -60 -10 -68
-10 -81 -14 -138 -41 -31 -15 -60 -28 -64 -29 -5 -2 -9 -3 -10 -4 -2 -2 -14
-4 -27 -7 -14 -2 -70 -18 -125 -35 -56 -16 -108 -31 -116 -33 -8 -3 -28 -10
-45 -17 -16 -6 -35 -13 -41 -14 -32 -7 -254 -106 -360 -161 -126 -64 -254
-141 -266 -159 -4 -5 -8 -7 -8 -2 0 11 -212 -144 -315 -232 -134 -113 -309
-291 -400 -406 -22 -27 -46 -58 -55 -67 -39 -44 -146 -203 -219 -326 -119
-202 -259 -526 -297 -684 -1 -5 -2 -9 -4 -10 -1 -2 -3 -10 -5 -18 -10 -39 -15
-57 -24 -88 -5 -18 -10 -35 -10 -37 -1 -3 -1 -6 -2 -7 0 -2 -2 -12 -4 -23 -2
-11 -6 -31 -9 -45 -8 -34 -15 -69 -21 -105 -3 -16 -7 -39 -9 -51 -2 -12 -7
-45 -11 -74 -4 -29 -8 -62 -10 -72 -5 -25 -18 -255 -17 -288 1 -14 3 -106 6
-205 2 -100 7 -206 11 -235 4 -30 9 -66 10 -80 7 -73 18 -151 26 -195 6 -27
13 -63 16 -80 4 -24 47 -200 67 -275 31 -113 107 -310 180 -465 51 -108 190
-353 206 -365 4 -3 13 -16 20 -30 7 -14 25 -41 40 -60 14 -19 48 -64 75 -100
27 -36 52 -67 55 -70 3 -3 25 -30 50 -60 78 -95 246 -261 376 -370 108 -91
315 -234 444 -308 80 -46 327 -168 380 -187 71 -26 304 -107 315 -109 6 -2 30
-8 55 -15 25 -7 52 -15 60 -16 8 -2 47 -11 85 -20 39 -8 84 -17 100 -20 17 -2
41 -6 55 -9 85 -17 298 -39 310 -31 5 3 11 2 14 -3 3 -5 101 -7 218 -6 199 2
271 6 358 18 19 2 58 7 85 11 28 3 57 8 65 10 8 3 33 7 55 11 22 3 58 10 80
15 22 5 49 11 60 13 11 2 40 9 65 16 25 7 52 14 60 15 14 2 105 30 140 42 8 4
20 7 25 8 6 2 52 19 104 39 51 20 99 36 107 36 8 0 14 5 14 10 0 6 5 10 12 10
12 0 169 70 178 80 3 3 10 6 16 7 22 4 260 146 352 210 270 187 508 415 725
694 42 54 187 277 187 287 0 7 5 12 10 12 6 0 10 5 10 10 0 6 12 29 27 53 15
23 27 44 28 47 0 12 50 105 58 108 4 2 7 10 7 18 0 7 8 28 18 46 10 18 31 65
46 103 16 39 34 84 41 100 11 26 54 159 85 260 14 47 32 117 37 145 2 14 8 41
13 60 5 19 11 53 14 75 4 22 8 51 11 65 13 61 15 78 21 125 3 28 7 65 10 84 2
19 7 93 9 165 8 220 15 303 31 389 20 102 65 221 110 288 19 28 34 53 34 55 0
20 195 194 232 206 6 2 12 19 13 38 5 99 53 190 122 235 20 13 22 13 17 0 -4
-8 -9 -15 -13 -15 -4 0 -18 -23 -32 -52 -34 -73 -32 -166 5 -241 111 -228 425
-227 537 1 32 65 33 187 3 252 -27 57 -86 117 -144 144 -101 47 -314 15 -508
-76 -244 -115 -437 -313 -535 -548 -45 -109 -82 -302 -80 -417 0 -18 -4 -33
-9 -33 -5 0 -7 4 -4 8 2 4 1 14 -3 21 -6 10 -46 13 -157 12 l-150 -1 -13 58
c-46 199 -211 325 -422 324 -78 0 -186 -18 -204 -34 -5 -4 -16 -8 -25 -8 -21
0 -169 -72 -223 -108 -51 -35 -91 -53 -187 -88 -89 -31 -137 -65 -146 -102 -4
-15 -12 -30 -18 -34 -6 -4 -83 -7 -171 -7 -117 0 -164 4 -175 13 -8 8 -46 31
-85 51 -87 47 -123 71 -153 102 -35 35 -167 133 -180 133 -7 0 -12 3 -12 8 0
7 -64 46 -79 48 -3 0 -22 8 -43 17 -55 25 -126 39 -203 42 -68 2 -80 -1 -225
-51 -13 -4 -15 31 -14 283 1 158 2 291 3 295 1 4 29 -12 64 -36 63 -45 297
-172 297 -162 0 3 21 -5 48 -18 93 -47 484 -163 610 -181 15 -2 65 -11 112
-19 47 -9 123 -21 170 -26 47 -6 96 -13 110 -15 104 -17 363 -23 490 -12 328
30 619 160 737 330 29 42 38 45 67 18 12 -11 49 -33 84 -51 121 -61 235 -45
306 44 99 124 139 344 83 452 -50 97 -184 141 -322 107 -77 -20 -76 -21 -55
55 10 37 21 83 24 102 3 19 8 46 11 60 26 127 34 195 36 303 l1 77 76 36 c77
35 227 119 248 139 6 5 21 17 33 25 50 35 71 102 46 151 -18 33 -107 123 -146
146 -16 10 -29 21 -29 25 0 4 -4 8 -10 8 -5 0 -35 16 -65 36 -31 19 -106 62
-168 94 l-112 58 -1 49 c-3 100 -14 299 -18 318 -2 11 -7 43 -10 70 -11 83
-47 228 -66 265 -24 45 -56 79 -88 91 -36 14 -105 8 -146 -12z m-3357 -616
c-8 -9 -53 -56 -100 -103 -47 -47 -88 -92 -90 -98 -5 -14 -104 80 -104 98 0 7
18 18 40 26 22 7 90 31 150 53 61 22 112 40 114 40 2 1 -3 -7 -10 -16z m-128
-270 c13 -16 12 -17 -3 -4 -10 7 -18 15 -18 17 0 8 8 3 21 -13z m34 -41 c-3
-3 -11 0 -18 7 -9 10 -8 11 6 5 10 -3 15 -9 12 -12z m-616 -71 c133 -140 151
-160 151 -167 0 -4 -66 -73 -147 -154 -82 -80 -160 -160 -174 -177 l-26 -31
-132 132 -132 133 38 34 c21 19 56 48 76 64 21 17 45 36 52 43 17 16 238 171
244 172 2 0 25 -22 50 -49z m691 -424 c0 -2 -12 -14 -27 -28 l-28 -24 24 28
c23 25 31 32 31 24z m-907 -122 c-3 -9 -8 -14 -10 -11 -3 3 -2 9 2 15 9 16 15
13 8 -4z m71 -21 c3 -8 2 -12 -4 -9 -6 3 -10 10 -10 16 0 14 7 11 14 -7z m786
-86 c0 -8 -3 -18 -7 -22 -26 -26 -43 -216 -22 -256 4 -8 13 -30 20 -49 7 -19
28 -54 47 -79 28 -37 31 -46 20 -60 -26 -33 -140 -142 -148 -142 -4 0 -87 79
-182 175 l-175 175 130 128 c71 70 152 151 180 179 l50 53 43 -44 c24 -24 44
-50 44 -58z m-1341 -57 c47 -48 101 -104 120 -124 l35 -37 -160 -158 c-198
-198 -190 -187 -173 -209 7 -10 -36 30 -95 88 l-108 106 48 79 c26 43 81 128
123 187 42 60 83 119 91 133 8 13 19 24 24 24 5 0 47 -40 95 -89z m632 72 c13
-16 12 -17 -3 -4 -17 13 -22 21 -14 21 2 0 10 -8 17 -17z m-301 -67 c0 -2 -8
-10 -17 -17 -16 -13 -17 -12 -4 4 13 16 21 21 21 13z m384 -22 c3 -8 2 -12 -4
-9 -6 3 -10 10 -10 16 0 14 7 11 14 -7z m-434 -28 c0 -2 -8 -10 -17 -17 -16
-13 -17 -12 -4 4 13 16 21 21 21 13z m452 -683 l178 -178 -176 -176 c-124
-124 -174 -181 -169 -190 12 -20 13 -22 -195 186 -175 175 -204 205 -182 191
5 -3 87 73 183 169 96 96 176 175 178 175 3 0 85 -80 183 -177z m-802 92 c13
-14 21 -25 18 -25 -2 0 -15 11 -28 25 -13 14 -21 25 -18 25 2 0 15 -11 28 -25z
m80 -80 c13 -14 21 -25 18 -25 -2 0 -15 11 -28 25 -13 14 -21 25 -18 25 2 0
15 -11 28 -25z m80 -80 c13 -14 21 -25 18 -25 -2 0 -15 11 -28 25 -13 14 -21
25 -18 25 2 0 15 -11 28 -25z m-673 -101 c-25 -24 -47 -44 -50 -44 -2 0 7 32
21 71 l25 70 25 -26 24 -26 -45 -45z m1943 -348 c0 -2 -7 -7 -16 -10 -8 -3
-12 -2 -9 4 6 10 25 14 25 6z m-1324 -180 l174 -174 -80 -80 -81 -80 -199 0
-200 0 -74 75 c-62 63 -78 74 -90 64 -12 -10 -14 -9 -10 6 4 13 -10 33 -43 65
-49 47 -174 176 -161 168 4 -3 56 -53 116 -112 l108 -107 175 175 c95 96 178
174 183 174 4 0 87 -78 182 -174z m565 117 c13 -16 12 -17 -3 -4 -10 7 -18 15
-18 17 0 8 8 3 21 -13z m755 -83 c-11 -13 -24 -39 -31 -60 -19 -60 -26 -100
-26 -142 0 -54 2 -68 20 -125 5 -18 6 -35 1 -38 -4 -3 -68 -5 -142 -4 l-133 0
-47 51 c-42 47 -48 50 -65 37 -10 -8 69 72 175 178 l192 192 34 -37 c29 -31
32 -39 22 -52z m-626 -45 c13 -14 21 -25 18 -25 -2 0 -15 11 -28 25 -13 14
-21 25 -18 25 2 0 15 -11 28 -25z m160 -160 c13 -14 21 -25 18 -25 -2 0 -15
11 -28 25 -13 14 -21 25 -18 25 2 0 15 -11 28 -25z m-164 -853 c-2 -4 13 -33
35 -65 22 -31 37 -57 34 -57 -7 0 -45 39 -45 46 0 3 -9 17 -20 31 -22 28 -26
53 -9 53 5 0 8 -3 5 -8z m1484 -27 c14 -19 14 -19 -2 -6 -10 7 -18 18 -18 24
0 6 1 8 3 6 1 -2 9 -13 17 -24z m21 -42 c13 -16 12 -17 -3 -4 -10 7 -18 15
-18 17 0 8 8 3 21 -13z m34 -33 c3 -6 -1 -7 -9 -4 -18 7 -21 14 -7 14 6 0 13
-4 16 -10z m-2145 -406 l146 -146 -179 -179 c-99 -98 -182 -179 -186 -179 -3
0 -96 91 -206 202 -110 111 -191 195 -180 187 11 -7 23 -18 27 -24 4 -6 63 45
136 118 111 110 134 130 167 134 21 3 54 11 74 18 20 8 40 14 46 14 5 1 75
-65 155 -145z m1590 -178 c14 0 -31 -51 -146 -166 -91 -91 -169 -171 -172
-176 -4 -5 -15 -15 -25 -23 -16 -13 -34 2 -195 163 l-178 178 155 155 c134
134 160 156 195 162 l41 8 152 -151 c100 -99 160 -151 173 -150z m3272 290 c4
3 13 2 19 -1 6 -4 0 -17 -17 -34 l-27 -27 -32 30 c-17 17 -30 34 -28 37 1 4
20 3 40 -1 20 -5 41 -7 45 -4z m-2871 -23 c13 -16 12 -17 -3 -4 -10 7 -18 15
-18 17 0 8 8 3 21 -13z m877 -157 l174 -173 -180 -181 -179 -180 -176 176
c-163 163 -177 175 -195 161 -10 -7 -8 -5 4 6 13 11 101 98 196 192 95 95 175
173 178 173 3 0 83 -78 178 -174z m1293 150 c-10 -12 20 -46 163 -191 97 -96
175 -179 175 -183 -1 -4 -75 -77 -164 -162 -89 -85 -169 -168 -178 -185 -9
-16 -17 -27 -17 -23 0 3 -25 -20 -57 -53 -31 -32 -60 -59 -66 -59 -5 0 16 25
47 56 31 31 56 61 56 68 0 6 -76 88 -170 181 -93 93 -170 171 -170 174 0 6
383 391 389 391 2 0 -2 -6 -8 -14z m-2096 -66 c10 -11 16 -20 13 -20 -3 0 -13
9 -23 20 -10 11 -16 20 -13 20 3 0 13 -9 23 -20z m-285 -23 c0 -2 -12 -14 -27
-28 l-28 -24 24 28 c23 25 31 32 31 24z m331 -24 c13 -16 12 -17 -3 -4 -10 7
-18 15 -18 17 0 8 8 3 21 -13z m2644 -3 c-3 -5 -12 -10 -18 -10 -7 0 -6 4 3
10 19 12 23 12 15 0z m-2594 -47 c13 -16 12 -17 -3 -4 -17 13 -22 21 -14 21 2
0 10 -8 17 -17z m2559 14 c0 -2 -12 -14 -27 -28 l-28 -24 24 28 c23 25 31 32
31 24z m-3030 -30 c0 -2 -17 -19 -37 -38 l-38 -34 34 38 c33 34 41 42 41 34z
m511 -24 c13 -16 12 -17 -3 -4 -17 13 -22 21 -14 21 2 0 10 -8 17 -17z m40
-40 c13 -16 12 -17 -3 -4 -17 13 -22 21 -14 21 2 0 10 -8 17 -17z m2359 -27
c0 -2 -8 -10 -17 -17 -16 -13 -17 -12 -4 4 13 16 21 21 21 13z m-40 -39 c0 -2
-12 -14 -27 -28 l-28 -24 24 28 c23 25 31 32 31 24z m-2280 -70 c0 -2 -12 -14
-27 -28 l-28 -24 24 28 c23 25 31 32 31 24z m1460 -40 c0 -2 -10 -12 -22 -23
l-23 -19 19 23 c18 21 26 27 26 19z m-1520 -21 c0 -2 -8 -10 -17 -17 -16 -13
-17 -12 -4 4 13 16 21 21 21 13z m-40 -40 c0 -2 -8 -10 -17 -17 -16 -13 -17
-12 -4 4 13 16 21 21 21 13z m1490 -9 c0 -2 -12 -14 -27 -28 l-28 -24 24 28
c23 25 31 32 31 24z m-1530 -31 c0 -2 -8 -10 -17 -17 -16 -13 -17 -12 -4 4 13
16 21 21 21 13z m1450 -49 c0 -2 -12 -14 -27 -28 l-28 -24 24 28 c23 25 31 32
31 24z m-1510 -11 c0 -2 -8 -10 -17 -17 -16 -13 -17 -12 -4 4 13 16 21 21 21
13z m-2317 -31 c-3 -9 -8 -14 -10 -11 -3 3 -2 9 2 15 9 16 15 13 8 -4z m1158
-330 c17 17 94 93 170 169 77 77 139 136 139 130 0 -5 -74 -83 -165 -173
l-165 -164 22 -26 23 -26 -27 24 c-16 14 -30 23 -33 20 -2 -2 -88 -87 -190
-189 -103 -102 -183 -177 -179 -166 5 14 -29 54 -165 190 l-172 172 178 180
178 180 177 -175 177 -175 32 29z m1119 322 c0 -2 -12 -14 -27 -28 l-28 -24
24 28 c23 25 31 32 31 24z m1490 -11 c0 -2 -8 -10 -17 -17 -16 -13 -17 -12 -4
4 13 16 21 21 21 13z m-40 -40 c0 -2 -8 -10 -17 -17 -16 -13 -17 -12 -4 4 13
16 21 21 21 13z m-1326 -185 l174 -173 -91 -91 c-51 -50 -131 -131 -180 -180
l-87 -89 -175 173 c-96 95 -175 178 -175 183 0 12 343 356 352 353 4 -1 86
-80 182 -176z m-853 142 c13 -16 12 -17 -3 -4 -10 7 -18 15 -18 17 0 8 8 3 21
-13z m2303 -191 l171 -172 -181 -181 -181 -181 -32 34 c-17 19 -97 100 -176
179 l-145 143 182 186 c101 102 185 181 187 175 2 -5 80 -88 175 -183z m-2263
151 c13 -16 12 -17 -3 -4 -17 13 -22 21 -14 21 2 0 10 -8 17 -17z m2899 -88
c13 -14 21 -25 18 -25 -2 0 -15 11 -28 25 -13 14 -21 25 -18 25 2 0 15 -11 28
-25z m-345 -135 c-60 -60 -111 -107 -113 -105 -6 6 200 214 213 214 5 1 -40
-48 -100 -109z m-2410 80 c10 -11 16 -20 13 -20 -3 0 -13 9 -23 20 -10 11 -16
20 -13 20 3 0 13 -9 23 -20z m2875 -65 c13 -14 21 -25 18 -25 -2 0 -15 11 -28
25 -13 14 -21 25 -18 25 2 0 15 -11 28 -25z m-2765 -45 c10 -11 16 -20 13 -20
-3 0 -13 9 -23 20 -10 11 -16 20 -13 20 3 0 13 -9 23 -20z m2840 -30 c10 -11
16 -20 13 -20 -3 0 -13 9 -23 20 -10 11 -16 20 -13 20 3 0 13 -9 23 -20z
m-3449 -42 l29 -33 -32 29 c-31 28 -38 36 -30 36 2 0 16 -15 33 -32z m55 -55
c13 -16 12 -17 -3 -4 -17 13 -22 21 -14 21 2 0 10 -8 17 -17z m1979 3 c0 -2
-8 -10 -17 -17 -16 -13 -17 -12 -4 4 13 16 21 21 21 13z m-1925 -56 c10 -11
16 -20 13 -20 -3 0 -13 9 -23 20 -10 11 -16 20 -13 20 3 0 13 -9 23 -20z
m1885 16 c0 -2 -8 -10 -17 -17 -16 -13 -17 -12 -4 4 13 16 21 21 21 13z m-40
-40 c0 -2 -8 -10 -17 -17 -16 -13 -17 -12 -4 4 13 16 21 21 21 13z m-1799 -23
c13 -16 12 -17 -3 -4 -17 13 -22 21 -14 21 2 0 10 -8 17 -17z m1759 -16 c0 -2
-12 -14 -27 -28 l-28 -24 24 28 c23 25 31 32 31 24z m-1709 -34 c13 -16 12
-17 -3 -4 -17 13 -22 21 -14 21 2 0 10 -8 17 -17z m40 -40 c13 -16 12 -17 -3
-4 -17 13 -22 21 -14 21 2 0 10 -8 17 -17z m1589 -6 c0 -2 -12 -14 -27 -28
l-28 -24 24 28 c23 25 31 32 31 24z m-1203 -406 c-7 -9 -60 -64 -120 -124
l-107 -108 -73 21 c-39 12 -121 40 -182 62 -100 37 -115 46 -165 98 l-55 58
177 177 c152 152 176 180 166 194 -7 9 74 -69 180 -173 161 -160 189 -192 179
-205z m1143 345 c0 -2 -8 -10 -17 -17 -16 -13 -17 -12 -4 4 13 16 21 21 21 13z
m310 -395 c0 -4 -46 -52 -102 -107 l-103 -101 -97 -17 c-164 -31 -139 -40
-282 103 l-126 127 178 180 177 179 178 -179 c97 -98 177 -181 177 -185z"/>
<path d="M1876 2314 c-248 -48 -474 -188 -620 -384 -23 -30 -44 -56 -48 -58
-5 -2 -8 -8 -8 -13 0 -5 -11 -27 -24 -47 -79 -126 -141 -357 -138 -522 4 -342
175 -657 457 -844 44 -29 97 -60 118 -69 88 -40 104 -46 147 -60 25 -8 59 -17
75 -21 17 -3 44 -9 60 -12 65 -14 289 -13 360 2 94 21 100 22 100 24 0 1 7 3
15 5 44 9 237 97 250 114 3 3 23 18 45 32 186 123 372 404 409 619 3 19 9 53
13 75 9 54 9 226 0 298 -28 208 -165 471 -310 596 -10 9 -31 27 -45 39 -52 46
-188 128 -262 159 -96 40 -114 46 -121 45 -4 -1 -22 3 -40 9 -60 18 -81 20
-224 23 -87 2 -166 -2 -209 -10z m332 -348 c81 -18 209 -74 262 -116 l25 -19
-121 -121 -121 -121 -61 20 c-34 12 -76 21 -94 21 l-33 0 -37 143 c-56 211
-53 195 -26 199 30 5 176 1 206 -6z m-329 -217 l40 -154 -24 -18 c-32 -24 -87
-81 -101 -103 -11 -19 -25 -16 -229 41 -33 9 -70 18 -83 20 -29 3 -36 10 -26
27 5 7 9 15 9 18 1 14 59 110 67 110 4 0 8 5 8 11 0 11 81 94 133 137 16 13
56 38 90 56 47 26 64 31 69 21 4 -7 26 -82 47 -166z m728 -51 c40 -44 93 -156
109 -232 18 -83 25 -238 12 -251 -3 -3 -79 14 -169 38 l-164 43 -7 49 c-4 27
-14 69 -24 93 -9 24 -15 45 -13 47 2 2 53 56 114 119 60 64 112 116 115 116 4
0 16 -10 27 -22z m-485 -287 c42 -16 70 -67 65 -119 -5 -48 -28 -79 -72 -97
-96 -40 -194 65 -150 160 20 40 29 49 70 62 33 11 46 10 87 -6z m-393 -89 c8
-5 16 -26 17 -48 2 -21 7 -50 10 -64 4 -14 8 -27 9 -30 0 -3 7 -16 14 -29 13
-23 8 -29 -105 -142 l-119 -118 -22 21 c-30 28 -98 171 -112 233 -12 55 -24
143 -22 163 0 6 1 20 2 30 0 9 3 29 5 43 l5 27 152 -39 c84 -22 158 -43 166
-47z m761 -204 c41 -11 80 -21 85 -22 44 -8 115 -31 115 -37 0 -14 -25 -63
-55 -110 -67 -103 -174 -198 -274 -245 -25 -12 -47 -21 -48 -20 -2 2 -74 270
-79 296 -3 13 -7 26 -9 29 -3 2 15 17 38 34 23 17 45 35 49 41 45 71 46 71
178 34z m-556 -113 c25 -13 51 -20 119 -29 9 -1 21 -6 26 -12 7 -8 33 -99 47
-164 3 -14 13 -53 23 -87 14 -46 16 -65 7 -71 -24 -19 -229 -3 -304 23 -7 2
-15 4 -17 4 -9 0 -139 71 -163 89 l-23 18 118 121 c65 66 123 121 128 122 6 0
23 -6 39 -14z"/>
<path d="M5509 2325 c-2 -1 -24 -6 -48 -9 -125 -17 -315 -96 -431 -180 -120
-86 -259 -252 -320 -381 -13 -27 -24 -52 -25 -55 -1 -3 -7 -18 -14 -35 -7 -16
-19 -56 -27 -87 -42 -164 -48 -304 -19 -478 48 -294 291 -605 570 -729 176
-79 253 -96 445 -95 133 0 176 5 255 26 22 6 45 12 50 14 21 4 118 45 167 70
187 95 364 280 456 477 101 214 126 498 63 705 -5 18 -10 33 -10 35 0 1 -4 15
-10 30 -6 16 -11 31 -11 34 0 14 -92 187 -117 220 -15 21 -32 44 -38 52 -31
44 -171 173 -226 209 -35 23 -68 46 -74 50 -15 12 -181 82 -206 87 -11 2 -30
7 -42 11 -12 4 -29 9 -37 10 -8 2 -28 6 -45 9 -32 7 -301 16 -306 10z m259
-359 c11 -4 31 -9 44 -11 13 -3 32 -9 43 -13 11 -5 38 -17 60 -26 22 -10 61
-31 87 -48 51 -32 52 -44 11 -83 -10 -9 -59 -57 -109 -106 l-90 -90 -62 20
c-34 12 -76 21 -94 21 l-33 0 -25 93 c-13 50 -25 97 -26 102 -1 6 -9 38 -18
71 -20 76 -20 72 2 76 26 6 187 1 210 -6z m-359 -102 c5 -21 23 -91 40 -154
l31 -115 -27 -20 c-37 -27 -75 -65 -94 -94 l-16 -25 -64 17 c-35 10 -73 20
-84 22 -11 2 -38 9 -60 15 -22 6 -59 16 -82 21 -24 6 -43 12 -43 14 0 8 35 80
41 85 3 3 12 16 18 28 17 33 47 68 108 127 69 67 74 71 146 109 68 37 70 36
86 -30z m775 -170 c6 -10 13 -21 16 -24 25 -22 88 -198 97 -269 8 -63 6 -172
-4 -182 -5 -5 -31 -2 -63 7 -30 8 -62 17 -71 19 -71 16 -185 49 -192 55 -4 4
-8 18 -9 31 -1 33 -25 119 -38 134 -7 9 22 44 111 134 67 67 127 120 132 118
6 -2 15 -12 21 -23z m-456 -325 c19 -27 23 -43 19 -77 -13 -118 -159 -146
-220 -42 -12 20 -15 62 -8 101 0 4 13 18 27 33 56 55 139 48 182 -15z m-708
25 c0 3 15 0 33 -5 17 -6 39 -12 47 -14 8 -2 59 -15 113 -29 53 -14 98 -26
100 -26 1 0 2 -20 1 -45 -1 -25 3 -48 7 -51 5 -3 9 -13 9 -23 0 -10 6 -31 14
-47 l15 -27 -121 -121 c-113 -113 -121 -119 -134 -101 -7 11 -17 25 -22 30 -7
9 -34 59 -63 117 -8 17 -34 111 -44 163 -7 38 -7 173 0 186 4 5 14 5 26 -1 10
-6 19 -9 19 -6z m1090 -291 c74 -20 137 -37 139 -39 7 -6 -23 -69 -56 -116
-18 -26 -33 -50 -33 -53 0 -9 -94 -96 -145 -135 -43 -32 -136 -82 -142 -77 -2
3 -49 177 -69 258 l-16 66 68 70 c79 81 57 78 254 26z m-616 -92 c6 -9 75 -29
118 -34 15 -2 30 -6 33 -9 6 -6 34 -104 67 -233 5 -22 10 -53 11 -70 l2 -30
-95 1 c-52 0 -106 3 -120 6 -87 21 -121 32 -126 39 -3 5 -12 9 -20 9 -14 0
-144 78 -144 86 0 3 54 59 121 124 113 113 140 132 153 111z"/>
<path d="M3828 195 c-2 -2 -363 -5 -804 -7 -441 -3 -806 -8 -812 -12 -7 -4
-12 -2 -12 4 0 6 -5 8 -10 5 -6 -4 -111 -8 -233 -11 -673 -11 -1107 -36 -1107
-63 0 -4 6 -8 13 -8 6 0 41 -4 77 -8 181 -20 712 -40 1353 -50 175 -3 322 -7
327 -10 5 -3 11 -1 15 5 4 6 13 7 23 2 18 -9 2340 -8 2852 2 348 6 640 14 815
21 394 18 490 26 509 46 11 10 11 10 -29 14 -16 1 -64 6 -105 9 -89 8 -233 16
-385 21 -60 2 -110 4 -110 5 0 1 -267 9 -555 15 -129 3 -584 8 -1010 11 -426
2 -783 6 -792 8 -9 2 -18 3 -20 1z"/>
</g>
</svg>
