<svg width="200" height="200" fill="none" xmlns="http://www.w3.org/2000/svg"><path d="M16.667 40h6.667v110h-6.667V40zm16.666 0h10v93.333h-10V40zm20 0H60v93.333h-6.667V40zm13.334 0h10v93.333h-10V40zm16.666 0H90v93.333h-6.667V40zm-80-20C1.333 20 0 21.333 0 23.333V40h6.667V26.667H20V20H3.333zm93.334 20h6.667v110h-6.667V40zm30 0h10v93.333h-10V40zm20 0h6.667v93.333h-6.667V40zM160 40h10v93.333h-10V40zm16.667 0h6.667v110h-6.667V40zm-170 133.333V160H0v16.667c0 2 1.333 3.333 3.333 3.333H20v-6.667H6.667zM193.333 160v13.333H180V180h16.667c2 0 3.333-1.333 3.333-3.333V160h-6.667zm3.334-140H180v6.667h13.333V40H200V23.333c0-2-1.333-3.333-3.333-3.333zM30 140h6.667v10H30v-10zm13.333 0H50v10h-6.667v-10zm13.334 0h6.667v10h-6.667v-10zM70 140h6.667v10H70v-10zm13.333 0H90v10h-6.667v-10zM110 140h6.667v10H110v-10zm13.333 0H130v10h-6.667v-10zm13.334 0h6.667v10h-6.667v-10zM150 140h6.667v10H150v-10zm13.333 0H170v10h-6.667v-10zm-50-100H120v93.333h-6.667V40z" fill="#999"/></svg>