<svg width="140" height="140" fill="none" xmlns="http://www.w3.org/2000/svg"><path d="M11.667 28h4.667v77h-4.667V28zm11.666 0h7v65.333h-7V28zm14 0H42v65.333h-4.667V28zm9.334 0h7v65.333h-7V28zm11.666 0H63v65.333h-4.667V28zm-56-14C.933 14 0 14.933 0 16.333V28h4.667v-9.333H14V14H2.333zm65.334 14h4.666v77h-4.666V28zm21 0h7v65.333h-7V28zm14 0h4.667v65.333h-4.667V28zM112 28h7v65.333h-7V28zm11.667 0h4.667v77h-4.667V28zm-119 93.333V112H0v11.667c0 1.4.933 2.333 2.333 2.333H14v-4.667H4.667zM135.333 112v9.333H126V126h11.667c1.4 0 2.333-.933 2.333-2.333V112h-4.667zm2.334-98H126v4.667h9.333V28H140V16.333c0-1.4-.933-2.333-2.333-2.333zM21 98h4.667v7H21v-7zm9.333 0H35v7h-4.667v-7zm9.334 0h4.666v7h-4.666v-7zM49 98h4.667v7H49v-7zm9.333 0H63v7h-4.667v-7zM77 98h4.667v7H77v-7zm9.333 0H91v7h-4.667v-7zm9.334 0h4.667v7h-4.667v-7zM105 98h4.667v7H105v-7zm9.333 0H119v7h-4.667v-7zm-35-70H84v65.333h-4.667V28z" fill="#999"/></svg>