<svg width="140" height="140" fill="none" xmlns="http://www.w3.org/2000/svg"><path d="M135.473 115.374l-15.982-27.682a61.64 61.64 0 005.857-26.169C125.348 27.6 97.748 0 63.824 0S2.301 27.6 2.301 61.523c0 27.856 18.793 52.112 45.301 59.346-.63 3.693.033 7.525 1.994 10.922 2.968 5.14 8.284 8.209 14.219 8.209h57.441c5.935 0 11.25-3.069 14.218-8.209 2.967-5.14 2.967-11.278-.001-16.417zm-28.72-49.743c-.003-.006 10.232-.006 10.232-.006a52.332 52.332 0 01-2.678 13.089l-7.554-13.084zm-53.595 43.575c-3.409-3.718-6.46-9.112-8.81-15.657-2.96-8.244-4.688-17.825-5.057-27.924h20.432v32.211l-6.565 11.37zm14.768-51.784V9.035c4.548 1.828 8.958 6.612 12.522 13.738 4.667 9.335 7.434 21.513 7.912 34.649H67.925zM59.723 9.035v48.387H39.289c.478-13.136 3.244-25.314 7.912-34.649 3.563-7.126 7.973-11.91 12.522-13.738zm8.203 56.59H78.32L67.926 83.628V65.625zm49.062-8.203H96.566c-.632-18.819-5.582-35.088-13.066-45.456 18.481 7.364 31.908 24.779 33.488 45.456zm-72.84-45.456c-7.484 10.368-12.434 26.637-13.065 45.456H10.66c1.58-20.677 15.008-38.092 33.49-45.456zM10.666 65.625h20.42c.378 11.047 2.271 21.586 5.542 30.696 2.064 5.748 4.597 10.712 7.501 14.753-18.712-7.442-31.893-25.05-33.463-45.449zM128.37 127.69a8.129 8.129 0 01-7.114 4.107h-57.44a8.13 8.13 0 01-7.114-4.107 8.132 8.132 0 010-8.215l28.72-49.743a8.131 8.131 0 017.114-4.107 8.13 8.13 0 017.114 4.107l28.72 49.743a8.131 8.131 0 010 8.215z" fill="#999"/><path d="M88.434 80.93h8.203v26.251h-8.203v-26.25zm0 34.454h8.203v8.203h-8.203v-8.203z" fill="#999"/></svg>