<svg width="140" height="140" fill="none" xmlns="http://www.w3.org/2000/svg"><path fill-rule="evenodd" clip-rule="evenodd" d="M20.417 52.523a2.917 2.917 0 01-2.917-2.916V37.94c0-11.258 9.158-20.417 20.417-20.417h11.666a2.916 2.916 0 110 5.834H37.917A14.6 14.6 0 0023.333 37.94v11.667a2.917 2.917 0 01-2.916 2.916zm93.333 0a2.915 2.915 0 01-2.917-2.916V37.94c0-8.05-6.545-14.583-14.583-14.583H84.583a2.917 2.917 0 010-5.834H96.25c11.258 0 20.417 9.159 20.417 20.417v11.667a2.917 2.917 0 01-2.917 2.916zM49.583 64.19a2.917 2.917 0 01-2.916-2.917V49.607a2.917 2.917 0 115.833 0v11.666a2.917 2.917 0 01-2.917 2.917zm35 0a2.917 2.917 0 01-2.916-2.917V49.607a2.917 2.917 0 115.833 0v11.666a2.917 2.917 0 01-2.917 2.917zM61.25 75.857a2.917 2.917 0 010-5.834 2.917 2.917 0 002.917-2.916v-17.5a2.917 2.917 0 115.833 0v17.5c0 4.824-3.926 8.75-8.75 8.75zm5.833 17.5c-6.603 0-12.203-2.252-16.648-6.685a2.929 2.929 0 014.13-4.13c3.348 3.354 7.443 4.981 12.518 4.981 5.075 0 9.17-1.633 12.519-4.981a2.928 2.928 0 014.13 4.13c-4.445 4.433-10.045 6.685-16.649 6.685zm-17.5 23.333H37.917c-11.259 0-20.417-9.158-20.417-20.417V84.607a2.916 2.916 0 115.833 0v11.666c0 8.044 6.545 14.584 14.584 14.584h11.666a2.916 2.916 0 110 5.833zm46.667 0H84.583a2.916 2.916 0 110-5.833H96.25c8.038 0 14.583-6.54 14.583-14.584V84.607a2.917 2.917 0 015.834 0v11.666c0 11.259-9.159 20.417-20.417 20.417z" fill="#999"/></svg>