<svg xmlns="http://www.w3.org/2000/svg" style="margin:auto" width="200" height="200" viewBox="0 0 100 100" preserveAspectRatio="xMidYMid"><rect x="45" y="3" rx="5" ry="5.6" width="10" height="28" fill="#FFF"><animate attributeName="opacity" values="1;0" keyTimes="0;1" dur="1s" begin="-0.875s" repeatCount="indefinite"/></rect><rect x="45" y="3" rx="5" ry="5.6" width="10" height="28" fill="#FFF" transform="rotate(45 50 50)"><animate attributeName="opacity" values="1;0" keyTimes="0;1" dur="1s" begin="-0.75s" repeatCount="indefinite"/></rect><rect x="45" y="3" rx="5" ry="5.6" width="10" height="28" fill="#FFF" transform="rotate(90 50 50)"><animate attributeName="opacity" values="1;0" keyTimes="0;1" dur="1s" begin="-0.625s" repeatCount="indefinite"/></rect><rect x="45" y="3" rx="5" ry="5.6" width="10" height="28" fill="#FFF" transform="rotate(135 50 50)"><animate attributeName="opacity" values="1;0" keyTimes="0;1" dur="1s" begin="-0.5s" repeatCount="indefinite"/></rect><rect x="45" y="3" rx="5" ry="5.6" width="10" height="28" fill="#FFF" transform="rotate(180 50 50)"><animate attributeName="opacity" values="1;0" keyTimes="0;1" dur="1s" begin="-0.375s" repeatCount="indefinite"/></rect><rect x="45" y="3" rx="5" ry="5.6" width="10" height="28" fill="#FFF" transform="rotate(225 50 50)"><animate attributeName="opacity" values="1;0" keyTimes="0;1" dur="1s" begin="-0.25s" repeatCount="indefinite"/></rect><rect x="45" y="3" rx="5" ry="5.6" width="10" height="28" fill="#FFF" transform="rotate(270 50 50)"><animate attributeName="opacity" values="1;0" keyTimes="0;1" dur="1s" begin="-0.125s" repeatCount="indefinite"/></rect><rect x="45" y="3" rx="5" ry="5.6" width="10" height="28" fill="#FFF" transform="rotate(315 50 50)"><animate attributeName="opacity" values="1;0" keyTimes="0;1" dur="1s" begin="0s" repeatCount="indefinite"/></rect></svg>